<svg xmlns="http://www.w3.org/2000/svg" xml:space="preserve" id="Layer_1" x="0" y="0" style="enable-background:new 0 0 370.32 80.51" version="1.1" viewBox="0 0 370.32 80.51"><style>.st0{fill:#fff}</style><path d="M183.57 25h-10.28V10.63h-7.65v40.71l-.82.51a26.927 26.927 0 0 1-14.19 4.04h-13.82l13.62-10.51-.01-.01c4.26-2.95 7.06-7.87 7.06-13.43 0-7.69-5.35-14.14-12.51-15.87v-5.45h-7.65v5.45c-7.17 1.73-12.51 8.18-12.51 15.87 0 7.02 4.45 12.99 10.67 15.31l-12.22 9.43c-1.3 1-1.81 2.72-1.29 4.26a3.822 3.822 0 0 0 3.62 2.59h25.04c5.22 0 10.34-1.2 15.01-3.45v8.03h7.65V32.65h10.28V25zm-51.12 6.95c0-4.79 3.9-8.69 8.69-8.69 4.79 0 8.69 3.89 8.69 8.69 0 4.79-3.9 8.69-8.69 8.69-4.79 0-8.69-3.9-8.69-8.69zM235.81 33.04h-7.78c.76-1.76 1.17-3.79 1.17-6.06v-5.84h-7.65v5.84c0 3.15-.9 6.06-7.4 6.06-6.51 0-7.4-2.91-7.4-6.06v-5.84h-7.65v5.84c0 2.27.41 4.3 1.16 6.06h-7.78v7.65h43.34v-7.65zM207.4 64.73h27.46c5.44 0 9.86-4.43 9.86-9.86 0-5.44-4.42-9.86-9.86-9.86H182.12v7.65h52.74a2.21 2.21 0 0 1 0 4.42H207.4c-4.52 0-8.21 3.68-8.21 8.21v4.23c0 4.53 3.68 8.2 8.21 8.2h36.23v-7.65H207.4c-.31 0-.55-.25-.55-.55v-4.23c0-.32.25-.56.55-.56zM295.51 10.63h-5.7c-4.41 0-8.01 3.59-8.01 8v24.11c0 1.21-.98 2.19-2.19 2.19H265.1c-5.4 0-9.8-4.4-9.8-9.8V18.56c0-.15.12-.28.28-.28h19.49v-7.65h-19.49c-4.37 0-7.93 3.56-7.93 7.93v16.57c0 9.62 7.83 17.45 17.46 17.45h14.51c5.43 0 9.84-4.41 9.84-9.84v-24.1c0-.19.16-.35.35-.35h5.7c.2 0 .35.16.35.35v33.95h7.65V18.64c0-4.41-3.59-8.01-8-8.01zM361.46 18.29h8.86v-7.65h-8.86c-4.41 0-8 3.59-8 8v23.09h-9.53c.48-1.54.74-3.17.74-4.86 0-5.82-3.07-10.93-7.67-13.82l10.56-5.14a3.829 3.829 0 0 0-1.68-7.27h-11.93c.79-1.69 1.24-3.56 1.24-5.54V2.06h-7.65v3.03c0 3.06-2.49 5.54-5.54 5.54h-11.07v7.65h18.37l-7.07 3.44c-5.98 2.43-10.22 8.29-10.22 15.14 0 9.01 7.33 16.34 16.34 16.34 3.99 0 7.64-1.44 10.48-3.82h22.31c.55 0 1 .45 1 1v11.48h7.65V50.38c0-4.77-3.88-8.65-8.65-8.65h-.01V18.64c-.02-.2.14-.35.33-.35zm-33.13 27.26c-4.79 0-8.69-3.89-8.69-8.69 0-4.79 3.9-8.69 8.69-8.69 4.79 0 8.68 3.9 8.68 8.69 0 4.8-3.89 8.69-8.68 8.69zM192.46 10.63h43.34v7.65h-43.34zM263.21 73.74l-1.43-4.87h-2.27l-1.41 4.87-1.44-4.87h-2.41l2.62 7.21h2.35l1.39-4.45 1.37 4.45h2.35l2.63-7.21h-2.32zM270.81 68.77c-.58 0-1.13.06-1.67.19s-1.1.33-1.69.59l.65 1.6c.38-.19.76-.33 1.14-.43.38-.1.72-.15 1.02-.15.45 0 .78.09 1.02.28.23.18.35.45.35.8v.08h-1.88c-.89.01-1.57.21-2.04.59-.48.38-.72.92-.72 1.6 0 .67.22 1.22.66 1.63.44.41 1.04.62 1.8.62.97 0 1.7-.31 2.17-.92v.81h2.33v-4.69c-.01-.83-.29-1.47-.84-1.93-.53-.44-1.3-.67-2.3-.67zm.83 4.87c-.07.28-.24.5-.51.67-.27.17-.58.26-.93.26-.3 0-.54-.08-.71-.22a.744.744 0 0 1-.26-.59c0-.5.33-.75 1-.75h1.41v.63zM276.77 66.74c-.51.44-.77 1.04-.77 1.81v.66h-.97v1.58h.97v5.29h2.36v-5.29h1.6v-1.58h-1.6v-.47c0-.25.08-.44.23-.57.15-.13.35-.2.59-.2.18 0 .44.06.8.19l.31-1.8c-.51-.19-1.02-.28-1.54-.28-.82 0-1.47.22-1.98.66zM282.08 66.74c-.51.44-.77 1.04-.77 1.81v.66h-.97v1.58h.97v5.29h2.36v-5.29h1.6v-1.58h-1.6v-.47c0-.25.07-.44.23-.57.15-.13.35-.2.58-.2.18 0 .44.06.8.19l.31-1.8c-.51-.19-1.02-.28-1.54-.28-.8 0-1.46.22-1.97.66zM286.54 66.19h2.37v9.89h-2.37zM293.95 68.79c-.74 0-1.4.15-1.97.46-.57.31-1.01.74-1.32 1.31-.31.56-.47 1.22-.47 1.95s.15 1.37.46 1.92c.31.55.75.98 1.33 1.28.58.3 1.25.45 2.03.45.66 0 1.26-.11 1.79-.33.53-.22.98-.54 1.35-.95l-1.24-1.24c-.24.24-.5.42-.79.55-.29.13-.59.19-.9.19-.41 0-.75-.11-1.04-.32-.29-.22-.48-.53-.6-.94h5.01c.01-.1.01-.24.01-.43 0-1.21-.32-2.16-.95-2.85-.62-.71-1.53-1.05-2.7-1.05zm-1.43 3.05c.08-.43.25-.77.5-1.01.25-.25.57-.37.94-.37.4 0 .72.13.97.38.24.25.36.59.36 1.01h-2.77zM306.44 72.43c0 .48-.12.87-.36 1.17-.24.3-.57.45-.99.46-.36 0-.64-.12-.85-.34-.21-.23-.31-.55-.31-.96v-3.88h-2.37v4.56c0 .84.23 1.5.7 2.01.47.5 1.09.75 1.87.75 1.05-.02 1.82-.44 2.31-1.28v1.18h2.37v-7.21h-2.37v3.54zM315.38 68.77c-.53 0-.99.11-1.39.32-.4.21-.74.53-.99.95v-1.17h-2.37v7.21H313v-3.81c.04-.41.19-.74.45-.99.25-.25.58-.38.97-.38.37 0 .67.12.89.35.22.24.33.56.33.96v3.87H318v-4.55c0-.84-.24-1.51-.71-2.01-.49-.5-1.12-.75-1.91-.75zM320.77 65.55c-.37 0-.67.12-.9.35-.24.24-.35.54-.35.91 0 .36.12.67.35.9.23.24.53.36.9.36s.67-.12.9-.36c.23-.24.35-.54.35-.9 0-.37-.12-.68-.35-.91-.24-.23-.54-.35-.9-.35zM319.61 68.87h2.36v7.21h-2.36zM328.27 68.87l-1.52 5.01-1.51-5.01h-2.44l2.7 7.21h2.43l2.71-7.21zM334.39 68.79c-.74 0-1.4.15-1.97.46-.57.31-1.01.74-1.32 1.31-.31.56-.47 1.22-.47 1.95s.15 1.37.46 1.92c.31.55.75.98 1.33 1.28.58.3 1.25.45 2.03.45.67 0 1.26-.11 1.79-.33.53-.22.98-.54 1.35-.95l-1.24-1.24c-.24.24-.51.42-.79.55-.29.13-.59.19-.9.19-.41 0-.76-.11-1.04-.32-.28-.22-.48-.53-.6-.94h5.01c0-.1.01-.24.01-.43 0-1.21-.32-2.16-.95-2.85-.63-.71-1.53-1.05-2.7-1.05zm-1.43 3.05c.08-.43.25-.77.5-1.01.25-.25.57-.37.94-.37.4 0 .72.13.97.38.24.25.37.59.37 1.01h-2.78zM341.63 70.07v-1.2h-2.37v7.21h2.37V72.4c.05-.46.25-.81.6-1.07s.8-.39 1.36-.39c.16 0 .28 0 .36.01v-2.17c-.51 0-.96.11-1.36.33-.4.22-.72.54-.96.96zM347.01 70.53c.12-.08.29-.11.49-.11.59 0 1.36.25 2.29.73l.8-1.55a5.819 5.819 0 0 0-3-.83c-.87 0-1.58.21-2.13.62-.55.41-.83.98-.83 1.71 0 .47.12.85.37 1.15.24.29.53.51.86.66.33.15.75.3 1.25.45.43.12.74.22.94.32.2.1.3.23.3.41 0 .14-.07.25-.2.33-.14.08-.32.11-.55.11-.4 0-.82-.08-1.27-.23a5.25 5.25 0 0 1-1.29-.66l-.75 1.53c.44.34.93.59 1.49.76.56.17 1.14.26 1.76.26.91 0 1.64-.21 2.2-.62.56-.41.85-.98.85-1.71 0-.48-.13-.87-.38-1.16-.25-.3-.54-.52-.89-.67-.34-.15-.77-.29-1.29-.44-.43-.12-.74-.22-.93-.32-.2-.1-.29-.23-.29-.38.01-.18.07-.29.2-.36zM353.03 65.55c-.37 0-.66.12-.9.35-.24.24-.36.54-.36.91 0 .36.12.67.36.9.23.24.53.36.9.36s.66-.12.9-.36.35-.54.35-.9c0-.37-.12-.68-.35-.91-.24-.23-.53-.35-.9-.35zM351.87 68.87h2.35v7.21h-2.35zM359.36 74.26c-.42 0-.63-.25-.63-.76v-2.72h1.87V69.2h-1.87v-2h-2.35v2h-1v1.58h1v3.09c0 .72.22 1.28.66 1.69.44.41 1.01.61 1.73.61.36 0 .71-.04 1.05-.13.34-.08.65-.2.92-.35l-.45-1.68c-.36.17-.67.25-.93.25zM366.49 68.87l-1.53 4.69-1.72-4.69h-2.44l2.99 7.04-.17.33c-.19.37-.48.55-.87.55-.17 0-.33-.03-.48-.09a1.93 1.93 0 0 1-.48-.31l-.99 1.64c.33.26.67.45 1.01.57.35.12.72.18 1.12.18.68 0 1.26-.16 1.72-.49.46-.33.83-.83 1.11-1.5l3.09-7.92h-2.36zM67.28 41.24h.02l4.5-4.5-.01-.01-4.51 4.51zM49.64 39.98h.02l3.25-3.25-.01-.01-3.26 3.26z" class="st0"/><path d="M52.88 0C32.33 0 15.6 16.72 15.6 37.28c0 3.44.48 6.76 1.35 9.93.95-.39 2.05-.82 3.29-1.27-.73-2.77-1.13-5.67-1.13-8.66 0-18.62 15.15-33.77 33.77-33.77 18.62 0 33.77 15.15 33.77 33.77 0 3.07-.42 6.05-1.19 8.88 1.26.47 2.35.9 3.28 1.29.92-3.24 1.43-6.65 1.43-10.17C90.17 16.72 73.44 0 52.88 0z" class="st0"/><path d="m74.63 33.89 3.04-3.05c.78-.78.78-2.05 0-2.83-.78-.78-2.05-.78-2.83 0l-3.05 3.04-3.77-3.77-2.84 2.83 3.77 3.77-6.61 6.61-3.77-3.77-2.83 2.84.44.44c2.1.1 4.16.27 6.16.5h.02c1.69.2 3.33.45 4.93.72l4.51-4.51.01.01 2.84-2.84-.02.01zM77.48 36.73l-2.83 2.84 4.46 4.46c1.13.34 2.19.68 3.19 1.02a2 2 0 0 0 .37-.28c.78-.78.78-2.05 0-2.84l-5.19-5.2zM52.9 17.83 55.74 15l-.01-.01 3.05-3.04c.78-.78.78-2.05 0-2.84-.78-.78-2.05-.78-2.84 0l-3.05 3.05-3.07-3.07c-.78-.78-2.05-.78-2.83 0-.78.78-.78 2.05 0 2.84L50.06 15l-6.61 6.62-8.03-8.03c-.78-.78-2.05-.78-2.84 0-.78.78-.78 2.05 0 2.83l8.03 8.03L34 31.06l-3.07-3.07c-.78-.78-2.05-.78-2.83 0-.78.78-.78 2.05 0 2.83l3.07 3.07-8.06 8.06c-.78.78-.78 2.05 0 2.84.05.04.09.08.14.12 1.16-.38 2.41-.77 3.73-1.15L34 36.73l.01.01 2.82-2.85 6.61-6.61 9.46-9.45zM55.73 33.89l6.61-6.61.01.01 2.84-2.84-.01-.01 8.03-8.03c.78-.78.78-2.05 0-2.83-.78-.78-2.05-.78-2.84 0l-8.03 8.03-3.77-3.77-2.84 2.84 3.77 3.77-6.61 6.61-3.77-3.77-2.83 2.83 3.77 3.77-6.54 6.54c1.99-.22 4.03-.37 6.12-.45l3.26-3.26.01.01 2.83-2.83-.01-.01zM36.84 39.57l1.57 1.57c1.61-.27 3.28-.5 4.98-.69l-3.71-3.71-2.84 2.83zM39.39 77.93c.13.44.09.86-.13 1.24-.21.38-.58.67-1.09.87-.45.18-.87.21-1.27.11-.4-.12-.69-.38-.86-.81.46-.21.7-.31 1.17-.51.09.18.19.3.31.34.12.05.26.04.4-.02.17-.06.29-.17.35-.31.07-.15.07-.31 0-.49-.06-.18-.14-.3-.26-.36-.11-.06-.24-.09-.37-.06-.23.04-.35.06-.58.11-.44.07-.82.05-1.15-.08-.32-.14-.56-.35-.68-.67-.17-.41-.16-.82.05-1.23.24-.46.69-.78 1.17-.97.44-.17.88-.21 1.3-.08.42.12.69.38.84.75-.48.17-.72.26-1.19.44-.09-.14-.19-.24-.32-.27a.529.529 0 0 0-.37.02c-.17.07-.28.18-.34.32-.05.15-.05.31.01.47.06.15.14.25.27.31.12.05.24.07.37.05.24-.04.36-.06.59-.09.46-.07.84-.03 1.14.1.29.13.51.4.64.82M38.88 74.32c.51-.17.76-.25 1.26-.4.41 1.49.82 3 1.24 4.49.03.12.01.22-.06.33-.07.1-.17.17-.27.2-.28.09-.41.12-.69.22-.5-1.62-.99-3.23-1.48-4.84M44.86 77.95c-.66-.77-1.32-1.51-2.01-2.25 0-.02-.03-.06-.07-.12l-.08-.12s.03.07.05.15c.03.08.05.13.05.16.17.71.32 1.42.48 2.13.02.11 0 .23-.07.33a.53.53 0 0 1-.29.19c-.28.07-.42.11-.69.19-.42-1.64-.83-3.27-1.25-4.91.45-.13.69-.19 1.15-.31.7.71 1.39 1.43 2.06 2.18.01.02.05.06.08.12.02.06.08.13.08.13s-.02-.08-.05-.15a.582.582 0 0 1-.03-.14l-.48-2.52c.51-.11.78-.16 1.3-.25.24 1.53.5 3.06.75 4.61.01.12-.02.22-.1.32-.07.09-.18.14-.29.17-.24.01-.36.04-.59.09M49.51 76.88c-.31.35-.7.54-1.22.6-.39.04-.76-.03-1.11-.22-.35-.19-.62-.53-.79-1.01-.13-.35-.21-.73-.27-1.12-.07-.39-.08-.77-.06-1.14.04-.53.24-.95.59-1.23s.72-.45 1.1-.49c.54-.06 1.01.04 1.39.3.37.25.61.65.72 1.15-.51.03-.77.06-1.27.1-.04-.21-.13-.38-.27-.49-.15-.12-.29-.17-.43-.16-.24.03-.41.19-.5.48-.09.29-.1.73-.02 1.3.07.63.18 1.06.32 1.3.14.23.33.34.56.31.12-.01.23-.09.35-.23.11-.13.17-.31.18-.55.5-.04.73-.08 1.23-.1-.04.46-.2.86-.5 1.2M51.63 73c.01.46.01.68.03 1.14.62-.01 1.27-.01 1.9 0 0 .24 0 .36-.01.6 0 .11-.04.2-.09.25-.07.05-.15.07-.27.07-.61-.01-.91-.01-1.52.01 0 .47.02.71.02 1.18.72-.02 1.43-.02 2.14 0-.01.21-.01.31-.01.51-.01.14-.04.23-.12.3-.07.06-.17.1-.31.09-.81 0-1.62 0-2.43.04-.14 0-.24-.03-.31-.09s-.11-.16-.12-.3c-.08-1.55-.14-3.11-.22-4.66 1.21-.06 2.41-.07 3.63-.04 0 .24-.01.35-.02.59-.01.12-.03.19-.09.25-.07.04-.16.06-.28.06-.65-.01-1.28-.01-1.92 0M58.65 77.55c-.06.04-.15.05-.26.04-.89-.14-1.8-.24-2.71-.31.03-.39.09-.69.2-.89.11-.2.3-.45.59-.75.41-.42.83-.82 1.25-1.22.09-.09.16-.2.21-.3a.78.78 0 0 0 .02-.72.43.43 0 0 0-.29-.19c-.13-.01-.24.04-.34.15-.09.12-.15.3-.18.57-.48-.05-.72-.08-1.2-.12.03-.5.21-.88.52-1.16.31-.28.75-.39 1.3-.32.52.06.92.25 1.18.56.26.31.37.69.3 1.14-.04.23-.12.43-.24.6-.13.16-.29.32-.46.48-.51.46-1.01.93-1.49 1.42.61.07 1.21.16 1.82.24-.03.22-.04.33-.08.54a.52.52 0 0 1-.14.24M62.38 76.9c-.1.44-.33.77-.67.97-.34.2-.72.26-1.16.17-.42-.09-.77-.29-1.01-.63-.24-.33-.33-.71-.26-1.17.11-.71.22-1.42.33-2.14.06-.4.27-.74.64-.97.36-.24.8-.31 1.29-.21.49.11.86.34 1.11.7.25.36.32.75.22 1.17-.16.71-.32 1.4-.49 2.11m-.71-2.36c.04-.22.04-.38-.02-.52a.386.386 0 0 0-.28-.23c-.13-.03-.24 0-.35.11-.1.09-.17.24-.21.45-.12.7-.25 1.4-.38 2.1-.03.2-.02.37.03.49.06.13.14.2.26.23.12.02.23-.01.32-.11.09-.09.17-.24.2-.45.15-.68.3-1.38.43-2.07M65.83 77.92c-.14.44-.39.74-.74.91-.36.19-.74.2-1.18.07-.43-.13-.74-.37-.96-.72-.21-.35-.27-.74-.17-1.19.16-.69.33-1.39.5-2.09.1-.4.33-.72.72-.93.37-.2.82-.23 1.3-.08.48.14.83.41 1.06.79.21.38.26.78.13 1.18-.23.7-.44 1.38-.66 2.06m-.52-2.41c.06-.21.06-.38.02-.52a.42.42 0 0 0-.26-.26c-.13-.04-.24-.01-.36.07-.11.09-.19.24-.24.44-.18.69-.36 1.37-.55 2.06-.06.2-.06.37-.01.49.04.13.12.22.23.26.12.03.23.01.34-.08.11-.09.17-.23.24-.43.19-.67.38-1.35.59-2.03M69.28 79.28c-.17.42-.45.7-.82.84-.38.14-.79.13-1.26-.06s-.78-.47-.97-.83c-.18-.37-.21-.78-.07-1.21.07-.21.18-.39.36-.54.18-.14.63-.3.63-.3.01-.03-.26-.39-.3-.61-.04-.21-.03-.42.04-.6.13-.39.38-.67.79-.82.39-.15.83-.14 1.32.06.5.2.84.51 1.03.89.18.38.18.77.03 1.14-.08.18-.21.35-.37.47-.18.13-.6.25-.61.25-.01.04.25.42.28.67.03.24 0 .46-.08.65m-1.08-.48a.78.78 0 0 0 .03-.52c-.05-.16-.13-.26-.25-.31a.488.488 0 0 0-.4.05c-.14.09-.24.22-.31.41-.06.18-.07.35-.02.51.05.15.13.26.25.3.13.05.26.04.38-.04.15-.1.24-.22.32-.4m.69-2.03a.71.71 0 0 0 .04-.47.374.374 0 0 0-.25-.28.362.362 0 0 0-.36.04c-.13.07-.21.2-.28.37-.06.17-.07.33-.02.47.05.14.12.23.23.27.11.05.24.03.35-.04.14-.07.23-.19.29-.36M16.49 54.85C6.1 59.83 0 65.86 0 65.86l9.13 3.32s.24 5.76 1.03 11.32c5.57-5.27 13.98-9.18 13.98-9.18l-8.91-9.45 1.26-7.02zM88.62 54.85l1.26 7.03-8.91 9.45s8.41 3.91 13.98 9.18c.8-5.57 1.03-11.32 1.03-11.32l9.13-3.32c0-.01-6.1-6.04-16.49-11.02zM77.73 48.46c.05-.18.02-.34-.1-.47a.766.766 0 0 0-.39-.24.68.68 0 0 0-.47.02c-.14.07-.23.19-.28.36-.06.2.03.51.28.93.56-.15.89-.35.96-.6zM75.05 50.92c-.19.11-.31.26-.37.46-.07.24-.03.49.13.75s.36.43.6.5c.33.1.71.06 1.12-.11l-.89-1.83c-.28.08-.47.15-.59.23zM41.45 60.67h-.02l-.12 1.35c-.08.87-.13 1.4-.15 1.58 0 .02 0 .04.01.06.01.07.05.11.12.09l1.42-.26c.07-.01.09-.06.08-.13 0-.02-.01-.04-.02-.05l-1.32-2.64zM36.76 47.14c-.49-.35-1.02-.46-1.6-.35-.58.11-1.03.42-1.35.92-.32.51-.42 1.06-.31 1.66.12.6.42 1.07.9 1.42.49.35 1.02.47 1.6.36.58-.11 1.03-.42 1.35-.92.32-.5.43-1.05.31-1.66-.11-.6-.41-1.08-.9-1.43z" class="st0"/><path d="M92.16 48.98s-1.23-.62-3.42-1.53a99.612 99.612 0 0 0-6.45-2.41c-1.01-.34-2.07-.68-3.19-1.02-3.44-1.03-7.43-2.03-11.8-2.79h-.02c-1.6-.28-3.24-.52-4.93-.72h-.02c-2-.24-4.06-.41-6.16-.5-1.2-.05-2.4-.09-3.63-.09-.97 0-1.94.02-2.89.06h-.02c-2.09.07-4.13.23-6.12.45-.04.01-.09.01-.13.01-1.7.19-3.37.42-4.98.69-4.19.7-8.05 1.63-11.43 2.61-1.32.38-2.57.77-3.73 1.15-1.08.35-2.07.71-3 1.04-1.24.45-2.34.88-3.29 1.27-2.57 1.05-4.01 1.78-4.01 1.78l8.2 9.61c-2.96 1.2-4.74 2.53-4.74 2.53l11.52 12.43 1.83 1.98c3.31-1.63 6.54-2.77 9.48-3.57a57.18 57.18 0 0 1 7.41-1.5c3.63-.48 5.93-.39 5.93-.39s2.45-.09 6.3.44c2.11.29 4.64.77 7.41 1.55 2.83.8 5.93 1.91 9.09 3.46l2.32-2.5 11.03-11.9s-1.79-1.33-4.75-2.53l8.19-9.61zm-28.02-4.73c-.02-.03-.05-.06-.07-.08-.07-.07-.1-.14-.08-.23.01-.07.04-.13.1-.17.06-.04.12-.06.19-.05l6.13.97c.09.01.15.05.2.12.05.07.07.14.06.23l-.2 1.28c-.01.08-.06.15-.13.2-.07.05-.14.07-.23.05l-3.73-.59c-.04-.01-.08 0-.12.03-.04.02-.06.05-.06.1l-.14.86c-.01.04 0 .08.03.11.02.04.06.06.1.06l3.6.57c.08.01.15.05.2.13.05.07.07.14.06.22l-.19 1.2c-.01.09-.06.15-.13.2-.07.05-.14.07-.23.05l-3.6-.57c-.04-.01-.08 0-.12.03-.04.02-.06.05-.06.1l-.14.86c-.01.04 0 .08.03.11.03.04.06.06.1.06l3.73.59c.09.01.15.05.2.12.05.07.07.15.06.23l-.21 1.29c-.01.08-.05.15-.12.2-.07.05-.14.07-.23.05l-5.7-.9a.284.284 0 0 1-.2-.12.31.31 0 0 1-.06-.23l1.05-6.61c.05-.18.01-.33-.09-.47zm-8.25-.57-.08-.08c-.08-.06-.11-.13-.1-.22.01-.07.04-.13.09-.17.05-.05.11-.07.19-.06l6.19.39c.09 0 .16.04.21.1.06.06.09.13.08.22l-.08 1.3c0 .08-.04.15-.11.21a.28.28 0 0 1-.22.07l-3.77-.24a.15.15 0 0 0-.11.04c-.03.02-.05.06-.05.1l-.05.87c0 .04.01.08.04.11s.06.05.11.06l3.64.23c.08.01.15.04.21.11.06.06.08.13.08.22l-.07 1.21c-.01.09-.04.16-.11.21-.06.06-.14.08-.22.07l-3.64-.23a.15.15 0 0 0-.11.04c-.03.02-.05.06-.05.1l-.05.87c0 .04.01.08.04.11s.07.05.11.05l3.77.23a.3.3 0 0 1 .21.1c.06.07.09.14.08.22l-.08 1.29c-.01.08-.04.15-.11.21-.06.05-.14.08-.22.07l-5.76-.36a.321.321 0 0 1-.21-.1c-.06-.06-.08-.13-.08-.22l.42-6.68a.759.759 0 0 0-.19-.45zm-15.77.48c.04-.05.1-.09.17-.09l5.89-.62c.08-.01.16.01.22.06.07.05.11.12.12.21l.14 1.29c.01.08-.02.15-.07.22s-.12.11-.2.12l-3.47.36c-.04 0-.08.02-.11.06a.15.15 0 0 0-.04.11l.08.81c.01.04.02.08.06.11.04.02.07.03.11.03l3.35-.35c.08-.01.16.01.22.07.06.05.1.12.11.2l.13 1.21c.01.08-.01.15-.07.22a.29.29 0 0 1-.2.11l-3.35.36c-.04 0-.08.02-.11.06a.15.15 0 0 0-.04.11l.28 2.67c.01.08-.01.16-.06.23-.05.07-.12.1-.2.11l-1.54.16a.258.258 0 0 1-.22-.07.333.333 0 0 1-.11-.21l-.7-6.65a.68.68 0 0 0-.23-.43l-.09-.06a.247.247 0 0 1-.14-.2c.01-.09.03-.15.07-.21zm-15.93 7.69c-.32-1.14-.2-2.23.38-3.26.57-1.04 1.43-1.72 2.57-2.04 1.06-.3 2.09-.2 3.09.3.07.05.11.11.13.19.02.08.01.15-.04.22l-.75 1.27a.293.293 0 0 1-.37.12c-.49-.22-.99-.25-1.51-.1-.59.17-1.03.52-1.33 1.05-.3.54-.37 1.1-.2 1.69.17.59.52 1.03 1.06 1.33.53.3 1.1.36 1.69.19.52-.15.93-.44 1.23-.88.04-.06.1-.1.17-.11.08-.02.14-.01.21.02l1.3.69c.07.04.12.09.14.16.02.08.02.15-.01.23-.59.95-1.41 1.58-2.48 1.88-1.14.32-2.22.2-3.26-.38-1.01-.57-1.7-1.43-2.02-2.57zm13.7 16.46-1.88.65c-.13.04-.23 0-.3-.12-1.54-2.75-2.34-4.21-2.41-4.35l-.06-.11c-.01-.04-.04-.06-.06-.06-.03.01-.04.04-.02.09l.02.12c.04.16.3 1.8.8 4.91.02.14-.03.23-.16.28l-1.88.65c-.12.04-.21 0-.28-.12l-3.75-5.96-1.04-1.64a.704.704 0 0 0-.19-.16c-.04-.02-.07-.04-.11-.06-.1-.03-.16-.1-.2-.2a.33.33 0 0 1 0-.24c.03-.07.08-.13.15-.15l1.39-.48.52-.18c.06-.02.12-.01.18.03.07.03.11.08.14.14 1.8 2.96 2.74 4.52 2.81 4.68l.1.21c.02.05.04.08.07.07.03-.01.03-.04.01-.09l-.05-.23c-.04-.18-.36-1.97-.98-5.36-.03-.15.01-.24.14-.28l1.69-.59c.12-.04.21.01.28.14 1.61 3.05 2.46 4.66 2.54 4.82l.1.21c.02.05.04.08.07.07.02-.01.02-.04.01-.09l-.05-.24c-.04-.17-.27-1.97-.68-5.41-.01-.03.01-.05.01-.07 0-.04 0-.08.01-.13.03-.07.07-.12.13-.14l1.77-.61c.06-.02.13-.01.19.03.07.04.1.1.11.18l.07.66.93 8.87c.02.13-.02.22-.14.26zm-1.5-15.13c-1.16.22-2.23 0-3.21-.66s-1.59-1.57-1.81-2.74c-.22-1.16 0-2.23.66-3.21s1.57-1.59 2.74-1.81c1.16-.22 2.23 0 3.21.66s1.58 1.57 1.81 2.74c.23 1.16 0 2.23-.66 3.21s-1.57 1.59-2.74 1.81zm10.26 13.27c-.03.06-.09.1-.19.12l-1.59.3c-.09.02-.16.01-.21-.02a.376.376 0 0 1-.14-.16l-.67-1.24-2.94.55-.18 1.4c-.01.09-.03.16-.07.2a.26.26 0 0 1-.18.09l-1.59.3c-.1.02-.18.01-.22-.04-.05-.05-.07-.12-.06-.21l1.13-8.39c.01-.06.01-.12.01-.17v-.05l-.01-.08a.88.88 0 0 0-.1-.27l-.01-.01c-.02-.03-.04-.07-.07-.1-.02-.02-.02-.03-.02-.03l-.08-.08-.01-.01h-.01c-.03-.03-.07-.05-.1-.07v-.01a.314.314 0 0 1-.17-.23c-.02-.09 0-.17.04-.23.04-.07.1-.11.17-.13l2.21-.41c.14-.03.25.03.34.16l.84 1.53 3.88 7.07c.03.09.03.16 0 .22zm6.17-4.17c-.06.08-.14.12-.22.12l-3.53.17c-.04 0-.08.02-.11.06a.22.22 0 0 0-.04.13l.16 3.3c.01.1-.02.2-.08.28-.06.07-.13.11-.21.12l-1.62.08c-.09 0-.16-.03-.23-.1a.406.406 0 0 1-.1-.27l-.33-7-.06-1.24a.78.78 0 0 0-.22-.54c-.03-.03-.06-.06-.09-.08-.08-.07-.13-.15-.13-.25 0-.09.02-.16.07-.23s.11-.1.18-.11l6.2-.3c.09 0 .17.03.23.1.07.07.1.15.11.26l.08 1.6c0 .1-.02.19-.09.26-.06.08-.13.12-.22.13l-3.66.17c-.05 0-.08.02-.11.06-.03.03-.05.08-.04.13v.03l.05.98c0 .05.02.1.05.13.04.03.08.05.12.04l3.53-.17c.09-.01.16.03.23.1s.1.15.1.25l.07 1.5c-.01.13-.04.22-.09.29zm-2.16-14.2a.16.16 0 0 0-.11.05c-.03.03-.05.07-.04.11l.06 2.68c0 .09-.02.16-.08.22s-.13.09-.21.09l-1.54.04c-.08 0-.15-.03-.22-.08a.294.294 0 0 1-.09-.22l-.16-6.69a.646.646 0 0 0-.2-.45c-.03-.03-.06-.05-.08-.07a.235.235 0 0 1-.12-.21c0-.07.02-.13.07-.18a.25.25 0 0 1 .18-.08l5.92-.15c.09 0 .16.03.22.08.06.06.1.13.1.21l.03 1.3c0 .08-.03.15-.09.21s-.13.1-.21.1l-3.49.08a.16.16 0 0 0-.11.05c-.03.03-.04.06-.04.11l.02.82c0 .04.02.08.05.11.03.02.07.04.11.04l3.37-.08c.08 0 .16.03.22.09s.09.13.09.21l.03 1.22c0 .08-.03.15-.08.21-.06.06-.13.09-.21.09l-3.39.09zm10.5 10.9c-.01.08-.04.14-.08.19-.01.02-.03.04-.04.05a.32.32 0 0 1-.23.1l-1.68-.15-1.96-.18c-.05 0-.09.01-.12.05-.04.03-.06.07-.06.12v.01l-.09 1c0 .05.01.1.04.14.03.04.07.06.11.06l3.52.32c.09.01.16.05.21.13.05.08.08.17.07.27l-.13 1.5c-.01.1-.05.18-.12.25-.07.07-.15.09-.23.09l-3.52-.32c-.04 0-.08.01-.12.05-.04.04-.05.08-.06.13l-.3 3.29a.42.42 0 0 1-.12.26c-.07.06-.14.09-.23.09l-1.61-.14a.302.302 0 0 1-.22-.13.436.436 0 0 1-.07-.28l.6-6.69.14-1.52a.81.81 0 0 0-.15-.57.236.236 0 0 0-.08-.09.3.3 0 0 1-.1-.27.3.3 0 0 1 .1-.21.27.27 0 0 1 .2-.08l6.18.56c.09.01.16.05.22.13s.08.17.07.28l-.14 1.56zM67.62 68c-.02.1-.07.18-.15.24-.08.06-.17.08-.25.06l-5.58-1.29c-.09-.02-.15-.07-.2-.16a.439.439 0 0 1-.03-.28l1.7-7.4.15-.63c.05-.21.03-.41-.07-.58a.36.36 0 0 0-.07-.1c-.06-.08-.08-.18-.06-.28.02-.08.06-.15.13-.2.06-.05.13-.06.2-.05l2.01.46c.09.02.15.07.2.16.04.09.05.18.03.28l-.22.94-1.34 5.81c-.01.05-.01.1.02.14.02.04.05.07.09.08l3.55.82c.09.02.15.07.2.16.04.08.05.18.03.28L67.62 68zm10.03-5.96-.57 1.5a.43.43 0 0 1-.19.21c-.08.05-.17.05-.25.02l-3.7-1.41a.195.195 0 0 0-.13.01c-.04.02-.07.05-.09.1l-.38 1.01a.17.17 0 0 0 0 .14c.02.05.04.08.09.09L76 65.08c.08.03.14.09.17.19.04.09.04.18 0 .28l-.53 1.4c-.04.1-.1.17-.19.21-.08.05-.17.05-.25.02l-3.57-1.36c-.04-.02-.09-.01-.13.01-.04.02-.07.05-.09.1l-.38 1.01a.17.17 0 0 0 0 .14c.02.05.05.08.09.09l3.7 1.41c.08.03.14.09.17.18s.03.19 0 .28l-.57 1.5c-.04.09-.1.17-.19.21-.08.05-.17.05-.25.02l-5.65-2.16a.278.278 0 0 1-.17-.18c-.04-.09-.03-.18 0-.28l2.94-7.71c.08-.2.08-.4.02-.59-.02-.04-.03-.08-.05-.11a.328.328 0 0 1-.02-.29c.03-.08.08-.14.15-.18a.26.26 0 0 1 .21-.02l6.08 2.32c.08.03.14.09.17.18.03.1.03.2-.01.29zm3.34-10.44-2.09 1.55.99 2c.04.06.05.12.03.16-.01.04-.04.06-.08.09-.04.02-.08.02-.12.01l-2.05-.61a.142.142 0 0 1-.09-.08l-.3-.61c-.75.38-1.57.44-2.45.17-.75-.22-1.34-.61-1.75-1.15-.47-.62-.59-1.32-.36-2.09.13-.45.4-.83.79-1.13.39-.3.83-.48 1.35-.54-.33-.7-.41-1.32-.25-1.85.21-.7.64-1.15 1.3-1.36.55-.18 1.15-.16 1.82.03.71.21 1.22.56 1.54 1.05.32.49.39 1.03.21 1.64-.22.73-.88 1.24-2 1.51l.61 1.13.86-.72c.04-.03.09-.04.14-.03l1.85.55c.06.02.1.06.11.12.01.08-.01.13-.06.16z" class="st0"/></svg>